<svg xmlns="http://www.w3.org/2000/svg" viewBox="0 0 800 360" role="img" aria-label="Uniforme e capacete CONCRECIA">
  <title>Aplicação — Uniforme + Capacete</title>

  <defs>
    <symbol id="cc-mark" viewBox="0 0 200 200" preserveAspectRatio="xMidYMid meet">
      <g fill="currentColor">
        <g transform="translate(70 70) scale(1.2) translate(-62.35 -433) translate(0 800) scale(0.1 -0.1)">
          <path d="M810 3961 c-174 -56 -310 -188 -373 -361 -82 -226 -24 -511 136 -674 97 -99 199 -143 353 -153 107 -7 212 13 314 58 102 47 100 44 100 180 l0 118 -115 -56 c-101 -48 -125 -56 -194 -60 -139 -10 -232 29 -310 127 -52 65 -75 141 -74 245 0 101 27 175 88 242 125 140 304 155 524 43 35 -17 66 -28 70 -25 3 4 5 56 5 116 -2 127 -6 134 -87 170 -90 38 -147 49 -267 48 -82 0 -131 -5 -170 -18z"/>
        </g>
        <g transform="translate(100 100) scale(1.2) translate(-62.35 -433) translate(0 800) scale(0.1 -0.1)">
          <path d="M810 3961 c-174 -56 -310 -188 -373 -361 -82 -226 -24 -511 136 -674 97 -99 199 -143 353 -153 107 -7 212 13 314 58 102 47 100 44 100 180 l0 118 -115 -56 c-101 -48 -125 -56 -194 -60 -139 -10 -232 29 -310 127 -52 65 -75 141 -74 245 0 101 27 175 88 242 125 140 304 155 524 43 35 -17 66 -28 70 -25 3 4 5 56 5 116 -2 127 -6 134 -87 170 -90 38 -147 49 -267 48 -82 0 -131 -5 -170 -18z"/>
        </g>
        <g transform="translate(130 130) scale(1.2) translate(-62.35 -433) translate(0 800) scale(0.1 -0.1)">
          <path d="M810 3961 c-174 -56 -310 -188 -373 -361 -82 -226 -24 -511 136 -674 97 -99 199 -143 353 -153 107 -7 212 13 314 58 102 47 100 44 100 180 l0 118 -115 -56 c-101 -48 -125 -56 -194 -60 -139 -10 -232 29 -310 127 -52 65 -75 141 -74 245 0 101 27 175 88 242 125 140 304 155 524 43 35 -17 66 -28 70 -25 3 4 5 56 5 116 -2 127 -6 134 -87 170 -90 38 -147 49 -267 48 -82 0 -131 -5 -170 -18z"/>
        </g>
      </g>
    </symbol>

    <symbol id="cc-wordmark" viewBox="40 400 727 125" preserveAspectRatio="xMidYMid meet">
      <g transform="translate(0,800) scale(0.1,-0.1)" fill="currentColor" stroke="none">
        <path d="M5940 3981 c-123 -18 -222 -73 -314 -172 -71 -77 -124 -173 -147 -269 -18 -70 -17 -259 0 -330 51 -209 217 -381 406 -421 84 -18 218 -16 295 5 76 20 194 72 212 94 9 10 12 49 10 125 -2 61 -4 113 -6 114 -2 2 -47 -19 -100 -46 -238 -122 -450 -75 -554 124 -25 46 -27 59 -27 175 0 117 2 128 27 177 104 196 318 245 554 128 40 -19 77 -35 83 -35 8 0 11 36 9 122 l-3 122 -39 22 c-101 57 -273 84 -406 65z"/>
        <path d="M810 3961 c-174 -56 -310 -188 -373 -361 -82 -226 -24 -511 136 -674 97 -99 199 -143 353 -153 107 -7 212 13 314 58 102 47 100 44 100 180 l0 118 -115 -56 c-101 -48 -125 -56 -194 -60 -139 -10 -232 29 -310 127 -52 65 -75 141 -74 245 0 101 27 175 88 242 125 140 304 155 524 43 35 -17 66 -28 70 -25 3 4 5 56 5 116 -2 127 -6 134 -87 170 -90 38 -147 49 -267 48 -82 0 -131 -5 -170 -18z"/>
        <path d="M1701 3665 c-137 -45 -242 -171 -276 -332 -20 -92 -19 -135 5 -222 27 -96 49 -137 109 -203 86 -95 202 -133 348 -116 84 10 148 42 214 108 90 89 129 194 129 345 0 125 -41 225 -132 321 -71 75 -147 107 -263 111 -58 1 -106 -3 -134 -12z m227 -184 c83 -42 125 -127 125 -251 0 -98 -13 -138 -68 -198 -47 -53 -107 -76 -183 -70 -82 6 -138 44 -177 123 -27 54 -30 69 -29 150 0 104 20 160 76 212 67 64 170 78 256 34z"/>
        <path d="M3534 3661 c-109 -37 -191 -107 -244 -208 -69 -134 -66 -337 7 -463 41 -69 107 -134 170 -166 55 -28 64 -29 188 -29 129 0 131 0 200 35 l70 35 3 89 c2 69 0 87 -10 83 -7 -3 -49 -22 -93 -41 -101 -45 -182 -49 -260 -12 -97 45 -145 128 -145 251 0 121 45 197 143 244 89 43 176 37 289 -19 33 -16 64 -27 69 -24 5 3 9 41 9 84 0 73 -2 80 -26 99 -72 57 -264 79 -370 42z"/>
        <path d="M2375 3648 c-3 -13 -4 -207 -3 -433 l3 -410 82 -3 83 -3 2 267 c2 191 6 268 15 271 6 2 80 -94 164 -214 84 -120 170 -242 191 -271 l39 -53 72 3 72 3 0 430 0 430 -82 3 -83 3 0 -256 c0 -239 -1 -256 -17 -253 -10 2 -89 102 -176 223 -228 318 -194 285 -282 285 -69 0 -75 -2 -80 -22z"/>
        <path d="M4097 3664 c-4 -4 -7 -200 -7 -435 l0 -427 71 -4 c39 -2 77 1 85 5 11 6 14 41 14 171 0 181 3 191 59 180 64 -13 88 -51 171 -271 l31 -83 90 0 c55 0 89 4 89 10 0 15 -83 235 -110 292 -12 25 -30 54 -41 64 -26 23 -24 48 6 68 13 9 37 37 52 63 24 41 28 59 28 123 0 65 -4 82 -31 130 -22 38 -46 64 -79 85 l-48 30 -186 3 c-103 2 -190 0 -194 -4z m308 -158 c41 -17 55 -42 55 -96 0 -33 -6 -48 -30 -71 -28 -28 -34 -30 -97 -27 l-68 3 -3 89 c-2 49 -1 95 2 103 7 18 97 17 141 -1z"/>
        <path d="M4812 3658 c-14 -14 -17 -824 -4 -846 7 -9 66 -12 263 -10 l254 3 0 70 0 70 -170 5 -170 5 0 105 0 105 157 3 c180 3 172 -1 166 98 l-3 49 -149 3 c-90 1 -155 7 -163 14 -13 11 -19 141 -7 172 5 14 30 16 170 16 l164 0 0 75 0 75 -248 0 c-180 0 -251 -3 -260 -12z"/>
        <path d="M6585 3648 c-3 -7 -4 -204 -3 -438 l3 -425 80 0 80 0 3 438 2 437 -80 0 c-55 0 -82 -4 -85 -12z"/>
        <path d="M7141 3638 c-9 -23 -223 -672 -259 -783 -11 -33 -18 -63 -15 -67 2 -5 40 -8 84 -8 90 0 88 -2 122 100 l22 65 161 3 c129 2 163 0 173 -12 6 -7 22 -45 35 -82 l23 -69 83 -3 c46 -2 87 1 91 5 6 7 -285 829 -305 862 -5 7 -45 11 -107 11 -94 0 -100 -1 -108 -22z m124 -218 c18 -29 103 -294 98 -306 -8 -21 -201 -20 -209 1 -3 8 5 49 19 92 14 43 35 111 47 151 20 69 31 84 45 62z"/>
      </g>
    </symbol>
  </defs>

  <!-- CAPACETE -->
  <g transform="translate(60 70)">
    <!-- aba -->
    <path d="M 0,160 Q 130,150 260,160 L 260,170 Q 130,180 0,170 Z" fill="#D4A912"/>
    <!-- casco -->
    <path d="M 30,160 Q 30,40 130,30 Q 230,40 230,160 Z" fill="#F5C518"/>
    <!-- listras técnicas -->
    <path d="M 30,160 Q 30,90 130,80 Q 230,90 230,160" fill="none" stroke="#D4A912" stroke-width="1.5"/>
    <!-- ventilação -->
    <rect x="105" y="55" width="6" height="14" fill="#D4A912" rx="2"/>
    <rect x="129" y="48" width="6" height="14" fill="#D4A912" rx="2"/>
    <rect x="153" y="55" width="6" height="14" fill="#D4A912" rx="2"/>

    <!-- LOGO OFICIAL frontal -->
    <image href="../logo-concrecia-mono-navy.png" x="65" y="60" width="130" height="130" preserveAspectRatio="xMidYMid meet"/>

    <!-- jugular -->
    <line x1="30" y1="160" x2="20" y2="200" stroke="#5E5B53" stroke-width="2"/>
    <line x1="230" y1="160" x2="240" y2="200" stroke="#5E5B53" stroke-width="2"/>

    <text x="130" y="230" text-anchor="middle"
      font-family="JetBrains Mono, monospace" font-size="9"
      fill="#8C887D" letter-spacing="1.5">CAPACETE — CA 31469</text>
  </g>

  <!-- CAMISA -->
  <g transform="translate(380 70)">
    <!-- gola -->
    <path d="M 130,0 L 110,30 L 150,30 Z" fill="#050F2E"/>
    <!-- corpo da camisa -->
    <path d="M 60,30 L 110,30 L 130,50 L 150,30 L 200,30 L 240,60 L 220,90 L 200,80 L 200,230 L 60,230 L 60,80 L 40,90 L 20,60 Z"
      fill="#0A1F5C"/>
    <!-- faixa amarela peito -->
    <rect x="60" y="160" width="140" height="6" fill="#F5C518"/>
    <rect x="60" y="156" width="140" height="2" fill="#FFD516"/>

    <!-- bolso -->
    <rect x="80" y="100" width="50" height="40" fill="none" stroke="#142A75" stroke-width="1.5"/>

    <!-- LOGO OFICIAL peito direito -->
    <image href="../logo-concrecia-white.png" x="140" y="85" width="80" height="80" preserveAspectRatio="xMidYMid meet"/>

    <text x="130" y="262" text-anchor="middle"
      font-family="JetBrains Mono, monospace" font-size="9"
      fill="#8C887D" letter-spacing="1.5">CAMISA OPERACIONAL</text>
  </g>
</svg>
