<?xml version="1.0" encoding="UTF-8" standalone="no"?>
<svg xmlns="http://www.w3.org/2000/svg"
  viewBox="0 0 200 200"
  preserveAspectRatio="xMidYMid meet"
  role="img" aria-label="CONCRECIA mark">
  <title>CONCRECIA — Símbolo Oficial</title>

  <!-- 3 Cs do wordmark oficial empilhados em diagonal -->
  <g fill="currentColor">
    <g transform="translate(70 70) scale(1.2) translate(-62.35 -433) translate(0 800) scale(0.1 -0.1)">
      <path d="M810 3961 c-174 -56 -310 -188 -373 -361 -82 -226 -24 -511 136 -674 97 -99 199 -143 353 -153 107 -7 212 13 314 58 102 47 100 44 100 180 l0 118 -115 -56 c-101 -48 -125 -56 -194 -60 -139 -10 -232 29 -310 127 -52 65 -75 141 -74 245 0 101 27 175 88 242 125 140 304 155 524 43 35 -17 66 -28 70 -25 3 4 5 56 5 116 -2 127 -6 134 -87 170 -90 38 -147 49 -267 48 -82 0 -131 -5 -170 -18z"/>
    </g>
    <g transform="translate(100 100) scale(1.2) translate(-62.35 -433) translate(0 800) scale(0.1 -0.1)">
      <path d="M810 3961 c-174 -56 -310 -188 -373 -361 -82 -226 -24 -511 136 -674 97 -99 199 -143 353 -153 107 -7 212 13 314 58 102 47 100 44 100 180 l0 118 -115 -56 c-101 -48 -125 -56 -194 -60 -139 -10 -232 29 -310 127 -52 65 -75 141 -74 245 0 101 27 175 88 242 125 140 304 155 524 43 35 -17 66 -28 70 -25 3 4 5 56 5 116 -2 127 -6 134 -87 170 -90 38 -147 49 -267 48 -82 0 -131 -5 -170 -18z"/>
    </g>
    <g transform="translate(130 130) scale(1.2) translate(-62.35 -433) translate(0 800) scale(0.1 -0.1)">
      <path d="M810 3961 c-174 -56 -310 -188 -373 -361 -82 -226 -24 -511 136 -674 97 -99 199 -143 353 -153 107 -7 212 13 314 58 102 47 100 44 100 180 l0 118 -115 -56 c-101 -48 -125 -56 -194 -60 -139 -10 -232 29 -310 127 -52 65 -75 141 -74 245 0 101 27 175 88 242 125 140 304 155 524 43 35 -17 66 -28 70 -25 3 4 5 56 5 116 -2 127 -6 134 -87 170 -90 38 -147 49 -267 48 -82 0 -131 -5 -170 -18z"/>
    </g>
  </g>
</svg>
